<svg xmlns="http://www.w3.org/2000/svg" xml:space="preserve" width="160mm" height="256mm" viewBox="0 0 160 256"><path d="M125.496 252.36c-1.025-.216-6.393-1.466-10.054-2.342-2.038-.488-4.258-.966-4.934-1.064-4.448-.642-4.562-2.307-.741-10.864 4.703-10.533 5.152-11.52 7.328-16.117 1.985-4.194 3.996-8.587 5.103-11.144.522-1.207.533-1.19-4.835-7.377-1.01-1.164-2.809-3.238-3.996-4.61-1.187-1.37-3.707-4.148-5.598-6.172s-3.697-4.058-4.01-4.519c-3.86-5.673-10.644-11.049-12.659-10.033-4.695 2.366-15.472 8.503-23.945 13.635-8.072 4.89-9.79 6.04-9.79 6.554 0 .53 1.674 9.295 2.902 15.2a287 287 0 0 1 1.46 7.672c.38 2.183.8 4.505.935 5.16.136.655.37 1.905.52 2.778s.336 1.945.412 2.381c.122.705.44 2.42.809 4.366.069.364.236 1.019.37 1.455 1.144 3.695-.059 5.35-4.142 5.7a469 469 0 0 0-5.514.516c-1.601.16-3.982.398-5.292.527-1.31.13-3.105.317-3.989.417-3.232.366-5.196-1.408-4.36-3.94.609-1.845 1.584-2.071 12.185-2.826 3.712-.264 4.763-.44 4.763-.8 0-.116-.412-2.216-.916-4.665a310 310 0 0 1-1.445-7.497c-.291-1.673-.78-4.352-1.086-5.953a924 924 0 0 1-.924-4.895c-.201-1.091-.72-3.77-1.155-5.953-2.813-14.148-3.015-12.754 2.35-16.156 7.162-4.54 20.728-12.44 28.576-16.638 6.796-3.637 6.45-3.353 6.25-5.134-.091-.822-.344-3.196-.56-5.276s-.451-4.044-.521-4.365-.197-1.24-.282-2.04c-.158-1.498-.659-5.94-1.297-11.51-.2-1.746-.561-4.96-.802-7.143-.61-5.533-.43-5.08-2.196-5.56-.835-.228-3.006-.84-4.825-1.36-3.222-.922-5.398-1.524-7.012-1.94-.436-.114-5.08-1.413-10.319-2.888-13.36-3.763-14.792-4.159-17.33-4.783-1.237-.305-2.546-.66-2.91-.79-.956-.339-17.401-4.723-22.49-5.994-4.472-1.118-4.815-1.247-5.4-2.04-1.73-2.339.634-8.844 10.011-27.562 5.038-10.054 5.038-10.054 5.06-14.287.04-7.988 2.786-13.046 5.795-10.678.906.712.835 1.917-.261 4.46-2.718 6.303-1.371 6.796 3.93 1.439 5.12-5.173 6.222-5.713 7.676-3.76.954 1.284.472 2.13-3.545 6.213-5.755 5.85-5.673 5.734-3.945 5.563 1.64-.162 3.496-.748 5.374-1.697 2.072-1.046 3.591-.365 3.667 1.645.09 2.39-6.296 5.149-11.914 5.149-2.258 0-1.674-.765-6.073 7.958-6.28 12.454-10.065 21.149-9.348 21.47.236.107 3.584.979 7.44 1.939s7.607 1.917 8.334 2.128c.728.21 3.704 1.02 6.615 1.799l10.45 2.797c4.21 1.127 19.77 5.538 29.436 8.345 2.336.679 2.205.814 1.796-1.854-.46-3.005-2.13-12.7-2.237-12.99-.061-.167-1.16-.355-2.578-.442-4.187-.258-8.084-1.926-11.61-4.97-1.466-1.265-1.466-1.265-5.797 2.02-4.796 3.638-5.497 3.911-6.772 2.636-1.476-1.476-.85-2.454 4.012-6.268a502 502 0 0 1 4.383-3.417c.12-.082-.014-.625-.296-1.209-.282-.583-.595-1.389-.696-1.791-.26-1.04-.434-1.051-4.235-.276-9.04 1.845-10.092 1.69-9.511-1.404.219-1.169 8.756-3.771 12.372-3.771.11 0 .393-2.405.544-4.622.053-.786.053-.786-3.783-1.923-8.891-2.634-8.467-2.424-8.467-4.192 0-1.271.868-2.228 2.022-2.228.503 0 10.473 2.646 11.6 3.078.163.063.482-.277.71-.754.228-.478.832-1.416 1.343-2.085.93-1.217.93-1.217-.163-2.396l-4.333-4.672c-3.56-3.839-4.005-4.843-2.712-6.135 1.393-1.393 2.463-.875 5.875 2.844 5.868 6.396 5.454 6.124 7.675 5.044 1.06-.515 2.178-1.015 2.483-1.11.546-.17.528-.28-1.003-6.341-1.688-6.683-1.707-7.11-.359-7.994 2.12-1.388 2.912-.321 4.625 6.234.742 2.838 1.466 5.588 1.608 6.112.26.953.26.953 2.488 1.125 1.226.094 2.39.233 2.586.308.252.097.794-.934 1.846-3.506 3.777-9.237 3.954-9.522 5.758-9.234 2.604.417 1.847 4.502-2.396 12.923-.66 1.312-.652 1.347.55 2.022.573.322 1.542 1.003 2.151 1.512.956.798 1.173.88 1.577.587.257-.187 2.285-1.768 4.507-3.515 5.724-4.499 7.05-4.93 7.942-2.583.57 1.497.179 1.988-4.608 5.791-2.499 1.985-4.702 3.756-4.895 3.935-.29.268-.173.706.661 2.478 1.142 2.426.982 2.356 4.001 1.73l2.569-.532c.29-.06 1.362-.235 2.38-.39 1.02-.154 2.314-.4 2.877-.545 1.829-.471 3.077.468 3.077 2.316 0 1.359-.907 1.815-5.171 2.6-2.177.402-4.314.83-4.751.95-.437.122-1.3.299-1.918.395-1.125.174-1.125.174-1.128 1.936-.002.97-.073 2.021-.158 2.337-.154.575 2.792 1.71 9.482 3.65 2.406.699 3.271 2.374 2.037 3.942-.79 1.006-1.597.917-7.166-.789-2.67-.817-5.035-1.539-5.258-1.603-.272-.078-.558.229-.868.932-.255.577-.75 1.473-1.102 1.99-.638.94-.638.94 1.795 3.533 5.432 5.79 5.21 5.506 5.21 6.654 0 2.57-2.526 2.86-4.657.533-2.237-2.443-5.788-6.184-5.939-6.257-.08-.039-.755.378-1.5.926-.746.548-1.71 1.192-2.142 1.43-.766.424-.78.466-.544 1.72.276 1.468.277 1.468 1.021 5.916 1.77 10.57.152 9.834 9.925 4.506 11.016-6.007 26.781-13.39 38.298-17.936 2.438-.962 4.432-1.83 4.432-1.927 0-.098-.748-1.415-1.663-2.928s-2.418-4-3.34-5.527c-3.305-5.474-8.801-13.494-9.246-13.494-.24 0-1.27.238-2.288.529-4.567 1.306-11.448.231-11.908-1.86-.505-2.3.937-3.15 4.294-2.534 2.686.493 3.513.504 4.96.068 1.206-.363.96-.553-5.68-4.38-4.459-2.57-5.333-3.742-4.1-5.502 1.131-1.615 2.276-1.157 12.54 5.027 1.601.965.075-2.899-2.318-5.868-2.124-2.635-1.58-5.071 1.052-4.718 2.677.359 6.724 7.135 7.266 12.167.144 1.337.364 1.896 1.17 2.97 1.519 2.023 6.493 9.547 9.533 14.42 8.23 13.189 8.491 14.859 2.672 17.083-1.4.536-2.904 1.131-3.341 1.323s-2.418 1.003-4.402 1.804c-3.555 1.433-10.677 4.573-16.632 7.333-4.947 2.292-15.342 7.607-21.167 10.823-2.983 1.647-5.88 3.243-6.439 3.547-1.167.635-1.145-.254-.185 7.564.295 2.4.778 6.449 1.073 8.996.295 2.546.648 5.344.784 6.217s.443 3.671.683 6.218.465 4.928.502 5.292.157 1.581.267 2.705c.2 2.044.2 2.044 6.851 8.736 6.286 6.324 12.25 12.733 14.59 15.678.579.728 2.66 3.229 4.626 5.558 8.103 9.6 7.792 8.704 5.145 14.815-.82 1.892-1.82 4.214-2.225 5.16-.89 2.083-4.225 9.244-8.132 17.462-1.003 2.11-2.076 4.372-2.384 5.027-.723 1.537-.572 1.682 2.439 2.355 1.31.292 3.393.773 4.63 1.068s3.039.713 4.004.928c3.589.8 4.943 1.866 4.616 3.63-.063.34-.123.75-.134.913-.086 1.289-2.483 2.029-4.914 1.517M83.612 106.19c10.047-2.089 13.986-15.046 6.969-22.92-7.233-8.115-20.8-4.583-23.025 5.994-2.145 10.198 6.185 18.978 16.056 16.926M5.98 73.431c-3.288-.219-4.472-1.882-2.641-3.713 2.461-2.462 17.064-.662 16.63 2.05-.311 1.944-3.685 2.345-13.99 1.662m133.792-5.962c-2.262-2.263-.622-3.527 5.833-4.494 2.474-.371 5.29-.803 6.257-.96 4.079-.662 5.517-.174 5.517 1.87 0 1.753-.65 2.04-6.614 2.929-2.984.444-6.139.917-7.012 1.05-2.565.393-3.262.324-3.98-.395m-116.537-9.07c-.218-.084-2.009-1.354-3.98-2.823-1.97-1.47-5.294-3.922-7.385-5.45-5.884-4.298-6.241-4.71-5.584-6.44.705-1.854 2.517-1.572 5.99.931 3.253 2.344 7.607 5.567 7.784 5.761.073.08 1.28 1.014 2.683 2.076 3.046 2.307 3.347 2.62 3.563 3.698.295 1.477-1.553 2.83-3.07 2.247m108.032-4.836c-3.127-1.26-1.454-3.49 10.604-14.143 5.749-5.078 7.097-5.77 8.336-4.277 1.352 1.63.792 2.469-5.131 7.699-2.765 2.441-5.325 4.76-5.689 5.154-1.487 1.607-5.773 5.3-6.45 5.558-.842.32-.898.32-1.67.01zm-50.015-.4c-.618-.26-.939-.676-1.352-1.755a669 669 0 0 0-2.686-6.706c-3.095-7.642-3.096-7.743-.063-11.212a460 460 0 0 0 4.143-4.824 346 346 0 0 1 2.607-3.06c.615-.697.55-.744-5.376-3.929-5.295-2.846-5.951-3.59-5.319-6.035.658-2.544 2.403-9.91 2.566-10.828.346-1.961 1.922-2.989 3.55-2.315q2.133.886.504 6.247a22 22 0 0 0-.359 1.323c-.06.276-.36 1.623-.665 2.993-.69 3.088-.84 2.792 2.278 4.499 5.086 2.785 8.173 4.613 8.487 5.027.82 1.079.71 2.966-.234 4.035-.3.34-1.173 1.39-1.94 2.337a367 367 0 0 1-6.321 7.518c-1.53 1.766-1.689.794 1.425 8.718 2.24 5.703 2.447 6.758 1.479 7.56-.705.586-1.88.76-2.724.406m25.898-6.475c-2.093-2.094-.69-5.557 2.253-5.557 2.188 0 3.58 1.791 3.154 4.06-.423 2.259-3.73 3.174-5.407 1.497m-73.771-4.206c-3.725-2.321-5.746-11.686-3.719-17.226 1.985-5.425 11.063-10.694 16.694-9.689.454.081 1.243.214 1.752.296 14.391 2.306 16.112 24.866 1.944 25.49-10.882.478-16.84-13.87-6.686-16.102 3.224-.708 6.935 1.39 7.3 4.128.33 2.479-2.111 3.372-4.16 1.521-3.062-2.767-4.788.499-1.87 3.539 4.736 4.93 12.216.276 10.22-6.36-2.06-6.843-8.535-9.373-15.377-6.007-6.752 3.323-7.704 8.783-3.001 17.206 1.307 2.34-.87 4.592-3.097 3.204m78.227-5.656c-1.678-.865-1.63-1.277 1.054-8.925 2.103-5.993 6.354-18.33 6.354-18.438 0-.2 1.64-.876 2.124-.876.753 0 2.11 1.392 2.11 2.164 0 .576-1.42 4.83-4.357 13.05-.676 1.891-1.894 5.344-2.708 7.672-1.817 5.203-2.75 6.294-4.577 5.353" style="fill:currentColor"/></svg>