<svg xmlns="http://www.w3.org/2000/svg" xmlns:xlink="http://www.w3.org/1999/xlink" width="62mm" height="62mm" viewBox="0 0 62 62"><defs><linearGradient id="a"><stop offset="0" style="stop-color:#ff6744;stop-opacity:1"/><stop offset=".484" style="stop-color:#b082be;stop-opacity:1"/><stop offset="1" style="stop-color:#2051ff;stop-opacity:1"/></linearGradient><linearGradient xlink:href="#a" id="b" x1="76.614" x2="129.569" y1="83.371" y2="101.605" gradientUnits="userSpaceOnUse"/></defs><path d="M103.033 70.014a4.016 4.016 0 1 0 0 8.032 4.016 4.016 0 0 0 0-8.032m13.39 3.386a4.016 4.016 0 1 0 .001 8.032 4.016 4.016 0 0 0 0-8.032m-26.948.04a4.016 4.016 0 1 0 0 8.032 4.016 4.016 0 0 0 0-8.032m13.685 8.008c-8.7 0-15.751 7.052-15.751 15.751.02 7.83 5.77 14.388 13.394 15.535.02 0 3.11.383 4.756.03 7.644-1.174 13.35-7.76 13.352-15.565 0-8.7-7.052-15.751-15.751-15.751m21.909 1.517a4.016 4.016 0 1 0 0 8.032 4.016 4.016 0 0 0 0-8.032M81 83.063a4.016 4.016 0 1 0 0 8.032 4.016 4.016 0 0 0 0-8.032m22.196 4.03c6.53 0 10.237 3.706 10.237 10.236s-3.707 10.237-10.237 10.237S92.96 103.86 92.96 97.33c0-6.53 3.706-10.237 10.237-10.237M79.104 95.39a4.016 4.016 0 1 0 0 8.032 4.016 4.016 0 0 0 0-8.032m47.975.015a4.016 4.016 0 1 0-.001 8.032 4.016 4.016 0 0 0 0-8.032m-5.284 11.43a4.016 4.016 0 1 0-.001 8.031 4.016 4.016 0 0 0 0-8.032m-37.482.095a4.016 4.016 0 1 0-.001 8.032 4.016 4.016 0 0 0 0-8.032" style="fill:url(#b);stroke:none;stroke-width:.264583" transform="translate(-71.806 -62.442)"/></svg>