<svg xmlns="http://www.w3.org/2000/svg" width="1100" height="1100" aria-label="Sun-headed winged human logo" viewBox="0 0 1100 1100"><path d="M548.75 167.959c-1.351.154-2.562 1.192-3.002 3.73-3.787 21.865-3.458 44.083-3.02 66.272.694-.063 1.39-.05 2.085-.096l-.047.807a93 93 0 0 1 6.748-.483c2.71.006 5.42.131 8.12.373.438-22.188.767-44.407-3.02-66.271-.44-2.538-1.651-3.576-3.002-3.73a3.7 3.7 0 0 0-1.375.116c-.203.054-.348.24-.545.32-.509-.35-.985-.766-1.567-.921a3.7 3.7 0 0 0-1.375-.117m60.26 19.947c-.704-.097-1.487.129-2.262.783l-26.851 53.703a93 93 0 0 1 12.58 5.188l18.271-52.89c1.766-3.292.374-6.493-1.738-6.784m-115.658.601c-2.112.292-3.504 3.493-1.738 6.784l18.271 52.89a93 93 0 0 1 12.58-5.187l-26.851-53.703c-.775-.654-1.558-.88-2.262-.784m158.516 23.838c-.416-.062-.826.044-1.12.344l-43.324 44.287a93 93 0 0 1 10.24 9.092c12.12-16.244 23.78-32.62 35.084-49.379 1.662-2.464.366-4.157-.88-4.344m-201.374.602c-1.246.186-2.542 1.88-.88 4.344 11.304 16.759 22.965 33.134 35.084 49.379a93 93 0 0 1 10.24-9.092l-43.324-44.287c-.294-.3-.704-.406-1.12-.344m239.254 32.742L628.211 278.9a93.4 93.4 0 0 1 7.475 13.107l54.062-39.318c4.237-3.792 3.7-5.94 0-7m-277.134.602c-3.7 1.06-4.237 3.208 0 7l54.062 39.318a93.4 93.4 0 0 1 7.475-13.107zm138.882 3.191c-45.412 0-82.226 36.814-82.226 82.227 0 40.588 29.426 74.253 68.098 80.959-.192 3.577.37 23.943 1.251 51.183l-.006 3.44c-1.812 14.92-4.95 17.228-18 19-48.197 1.232-96.2-.623-144-7-45.682-7.957-89.64-22.838-134-36l-18-3-50 1c-7.137.424-7.366 5.352 1 7l35 5c17.677.813 11.013 10.414 2 11-34.346 2.37-104.821 15.653-162 81 33.69 1.627 65.47-18.178 95-32 24.245-15.65 44.198-24.753 71-33 11.508-3.629 20.164-3.412 27 11 .887 6.666-12.007 17.168-12.007 17.168l43.008-18.168c4.451-1.027 8.324-.51 12 0 66.283 18.278 132.54 25.86 201 27 24.283 4.026 28.74 11.09 32 35 0 0 4.937 29.235 6 44 2.92 40.563 1 122 1 122 .095 14.983-2.199 29.517-10 42l-20 32c-7.485 12.627-12.184 26.239-17 40-7.832 29.38-6.203 59.976-6.016 90.129.01 1.625-5.77 8.67-8.984 9.87-6.064 2.264-19 4-19 4-2.849.6-4.94 5.346-2 8h52c2.216-.652 2.55-1.842 3-3-1.913-36.71.476-66.685 9-102 5.373-13.597 20.216-43.08 44-52l.008-.218c23.264 9.31 37.82 38.19 43.127 51.617 8.524 35.314 10.912 65.289 9 102 .449 1.158.783 2.348 3 3h52c2.939-2.654.848-7.4-2-8 0 0-12.937-1.736-19-4-3.216-1.2-8.995-8.246-8.985-9.871.187-30.153 1.816-60.749-6.015-90.129-4.817-13.76-9.516-27.372-17-40l-20-32c-7.802-12.483-10.095-27.016-10-42 0 0-1.92-81.437 1-122 1.062-14.764 6-44 6-44 3.26-23.91 7.717-30.974 32-35 68.459-1.139 134.716-8.722 201-27 3.675-.51 7.548-1.026 12 0l43.007 18.168s-12.894-10.502-12.007-17.168c6.836-14.412 15.492-14.628 27-11 26.802 8.247 46.755 17.35 71 33 29.53 13.823 61.31 33.628 95 32-57.178-65.346-127.654-78.629-162-81-9.013-.585-15.677-10.186 2-11l35-5c8.367-1.647 8.137-6.576 1-7l-50-1-18 3c-44.36 13.162-88.318 28.044-134 36-47.8 6.377-95.803 8.233-144 7-13.05-1.772-16.188-4.08-18-19l-.004-2.305c.892-27.562 1.468-48.358 1.255-51.572 38.985-6.444 68.723-40.293 68.723-81.103 0-45.413-36.814-82.227-82.226-82.227zm.293 22.895c35.058 0 59.477 24.419 59.477 59.476s-24.42 59.477-59.477 59.477-59.476-24.42-59.476-59.477 24.42-59.476 59.476-59.476m154.618 26.084c-.986-.028-2.191.039-3.659.228l-61.879 7.984a93 93 0 0 1 2.567 13.456l.312 1.56 65-18c.645-.178 4.556-5.033-2.341-5.228m-310.452.601c-6.897.196-2.986 5.05-2.341 5.229l65 18 .312-1.56a93 93 0 0 1 2.566-13.456l-61.878-7.984c-1.468-.19-2.673-.257-3.659-.229m247.764 38.736a93 93 0 0 1-1.793 12.561c14.12 5.226 86.272 4.959 69.822 1.33-20.357-4.49-47.968-13.247-68.029-13.89m-185.076.602c-20.062.643-47.672 9.4-68.03 13.89-16.45 3.63 55.703 3.897 69.823-1.33a93 93 0 0 1-1.793-12.56m178.383 27.973a93 93 0 0 1-6.055 12.154c5.701 4.671 38.298 23.99 57.777 25.162 14.153 1.318-41.057-32.742-51.722-37.316m-171.69.601c-10.665 4.574-65.875 38.634-51.722 37.317 19.479-1.173 52.076-20.491 57.777-25.162a93 93 0 0 1-6.055-12.155m155.51 25.672a93 93 0 0 1-9.127 9.06l45.03 39.983c20.36 16.72-14.102-31.865-35.903-49.043m-139.33.602c-21.8 17.177-56.262 65.763-35.902 49.043l45.029-39.983a93 93 0 0 1-9.127-9.06m410.512 103.105c-3.712.374-4.413 2.86-2.28 7.336 7.26 8.71 82.18 94.847 139 116 .62.231 1.266-.435 1-1-14.64-31.112-34.79-56.389-61-79-23.654-18.196-43.485-32.789-72-43q-2.866-.523-4.72-.336m-681.694.602q-1.854-.188-4.72.336c-28.515 10.21-48.346 24.804-72 43-26.21 22.61-46.36 47.887-61 79-.266.565.379 1.23 1 1 56.82-21.154 131.74-107.29 139-116 2.133-4.476 1.432-6.963-2.28-7.336m608.016 15.052c-.947.187-1.56.98-1.602 2.682-.344 14.26 40.127 130.184 99 180-2.842-29.79-10.327-57.827-23-85-17.707-35.195-37.185-69.614-68-95-1.853-1.3-3.826-2.435-5.35-2.678a3 3 0 0 0-1.048-.004m-535.387.606c-1.523.243-3.496 1.378-5.35 2.678-30.814 25.385-50.292 59.805-68 95-12.672 27.173-20.157 55.209-23 85 58.874-49.816 99.345-165.74 99-180-.054-2.271-1.127-2.92-2.65-2.678m583.955 5.008c-2.82.662-2.842 3.226-2.17 5.068 30.292 82.952 109.275 162.92 130 172l1-2c-11.198-38.519-26.92-74.72-51-107-32.322-39.558-51.55-56.775-74-68-1.639-.3-2.89-.289-3.83-.068m-631.474.601c-.94-.22-2.191-.23-3.83.069-22.45 11.224-41.678 28.441-74 68-24.08 32.28-39.802 68.48-51 107l1 2c20.725-9.08 99.708-89.049 130-172 .672-1.842.65-4.406-2.17-5.069m545.304 1.467c-1.621-.058-3.1.672-3 2 3.956 52.54 24.091 98.982 29 110 9.729 18.572 19.71 37.15 37 50 0-18.686-1.26-36.722-6-55-7.11-22.348-13.123-45.1-24-66-8.862-14.18-17.35-33.244-33-41m-459.134.602c-15.65 7.755-24.138 26.82-33 41-10.877 20.9-16.89 43.652-24 66-4.74 18.278-6 36.314-6 55 17.29-12.85 27.271-31.428 37-50 4.909-11.019 25.044-57.46 29-110 .1-1.329-1.379-2.059-3-2m419.545 3.9c-1.308.276-2.253 1.385-2.41 3.498-2.137 28.585.142 54.09 9 82 7.86 17.293 15.358 34.057 31 46 .855-28.242 1.336-53.576-8-81-6.86-17.41-11.934-35.081-25-49-1.61-1.218-3.282-1.774-4.59-1.498m-379.956.602c-1.308-.277-2.98.28-4.59 1.498-13.066 13.918-18.14 31.589-25 49-9.336 27.424-8.855 52.758-8 81 15.641-11.944 23.14-28.707 31-46 8.858-27.91 11.137-53.415 9-82-.157-2.113-1.102-3.222-2.41-3.498m341.809.632c-.878-.019-1.677.383-2.264 1.264-10.371 15.573-7.552 34.43-4.632 52 2.912 17.527 11.42 30.782 24.632 43 2.406-12.028 4.198-23.61 3-36-2.454-20.993-3.529-42.371-18-59-.901-.804-1.858-1.244-2.736-1.264m-303.662.602c-.878.02-1.835.46-2.736 1.264-14.471 16.629-15.546 38.007-18 59-1.198 12.39.594 23.972 3 36 13.212-12.218 21.72-25.473 24.632-43 2.92-17.571 5.74-36.427-4.632-52-.587-.882-1.386-1.283-2.264-1.264"/></svg>