<svg xmlns="http://www.w3.org/2000/svg" width="180mm" height="180mm" viewBox="0 0 180 180"><path d="M100.232 66.89a4.016 4.016 0 1 0 0 8.033 4.016 4.016 0 0 0 0-8.032m13.39 3.387a4.016 4.016 0 1 0 .001 8.031 4.016 4.016 0 0 0 0-8.031m-26.948.04a4.016 4.016 0 1 0 0 8.031 4.016 4.016 0 0 0 0-8.032m13.684 8.007c-8.699 0-15.75 7.053-15.75 15.752.02 7.83 5.77 14.388 13.394 15.534.033.012.002.185.005.34-.01 2.54-.004 5.1-.505 7.067-.573 2.327-1.5 2.139-2.398 2.146-8.809.21-17.405-.344-25.62-2.272l-20.825-5.3c-4.255-.43-8.522-.747-12.368-.111-1.431.338-.969 1.923-.379 1.751 3.088.551 7.903 1.131 8.85 2.265.633 1.417-11.14 1.631-21.052 7.635-2.64 1.6-5.037 3.264-6.825 6.21.468.819 2.071.717 3.987.383 1.985-.347 4.307-.508 7.215-1.348 5.155-1.653 9.94-3.994 14.262-7.193 1.816-1.384 3.03-3.521 5.427-3.913 2.408.054 4.766 1.708 5.68 2.02.36.433-1.343 1.168-2.942 1.888-5.535 3.146-11.22 6.01-16.116 10.353-4.67 3.388-6.791 5.817-8.273 7.578-1.602 1.903-2.305 3.33-2.75 4.533-.49 1.958.038 1.87 1.465 1.66 4.166-.617 9.796-3.58 17.256-9.48 4.272-4.543 8.75-9.087 12.116-13.63 1.594-1.589 2.568-1.938 3.282-1.767 1.987.457 3.38.455 5.916 1.735.458.24.156.555-.213.878-15.096 9.931-23.34 22.775-24.15 29.048-.219 1.384-1.398 3.973 2.693 1.615 3.394-2.66 7.013-5.12 9.696-8.413 5.682-6.379 10.176-13.142 13-20.446.757-1.718 1.777-1.63 2.776-1.893 1.668-.323 3.208.24 4.639.608.52.134 1.92.229.44 2.036-3.578 4.408-7.08 8.858-9.749 13.763-2.266 4.386-3.464 8.826-4.05 13.296l.012 2.48 2.303-1.291c3.856-3.146 6.646-7.11 9.434-11.077 2.931-5.172 4.366-10.502 5.043-15.912.095-.828.13-1.771.636-2.01 4.348-.912 9.269.015 14.01.631 4.552.66 4.25 5.614 4.543 8.33l.505 20.067c.03 11.026-4.6 9.628-7.825 19.31-2.646 8.644-1.475 12.254-1.767 17.796-1.026 1.874-3.673 1.139-6.29 2.053-1.934.912-2.386 1.678.16 2.145 1.158.032 4.417.336 12.043-.28-.38-4.896-2.224-25.405 9.1-26.851v-.006c11.294 1.473 9.454 21.954 9.074 26.847 7.627.616 10.885.312 12.043.28 2.546-.468 2.094-1.234.16-2.146-2.617-.914-5.264-.178-6.29-2.053-.293-5.541.88-9.151-1.767-17.795-3.225-9.683-7.854-8.285-7.825-19.31l.505-20.068c.293-2.716-.009-7.67 4.544-8.33 4.74-.615 9.66-1.542 14.009-.63.505.238.541 1.182.637 2.01.676 5.41 2.11 10.74 5.042 15.911 2.788 3.967 5.578 7.932 9.433 11.077l2.305 1.292.011-2.48c-.586-4.47-1.784-8.91-4.05-13.297-2.669-4.905-6.17-9.355-9.75-13.763-1.479-1.807-.079-1.902.441-2.036 1.43-.368 2.971-.93 4.64-.607.998.262 2.017.174 2.776 1.893 2.823 7.303 7.317 14.067 13 20.445 2.682 3.292 6.3 5.753 9.694 8.413 4.092 2.358 2.913-.23 2.694-1.615-.81-6.272-9.054-19.117-24.15-29.048-.369-.322-.672-.638-.213-.877 2.536-1.281 3.929-1.279 5.916-1.736.714-.171 1.688.179 3.282 1.767 3.366 4.544 7.844 9.087 12.115 13.63 7.461 5.9 13.09 8.864 17.257 9.48 1.427.21 1.955.299 1.464-1.66-.444-1.203-1.146-2.63-2.749-4.533-1.482-1.761-3.604-4.19-8.273-7.577-4.896-4.344-10.58-7.208-16.116-10.353-1.598-.72-3.303-1.455-2.941-1.89.914-.31 3.27-1.964 5.68-2.019 2.397.393 3.61 2.529 5.426 3.913 4.322 3.2 9.107 5.54 14.262 7.194 2.909.839 5.23 1 7.215 1.347 1.916.334 3.52.436 3.987-.382-1.789-2.946-4.185-4.611-6.825-6.21-9.912-6.005-21.686-6.219-21.052-7.636.947-1.133 5.762-1.713 8.85-2.265.59.172 1.052-1.412-.379-1.75-3.846-.636-8.113-.319-12.368.11l-20.825 5.3c-8.215 1.928-16.81 2.483-25.62 2.272-.898-.007-1.825.182-2.398-2.145-.457-1.792-.54-4.963-.512-7.367 7.644-1.173 13.35-7.76 13.352-15.564 0-8.7-7.052-15.752-15.751-15.752m21.91 1.517a4.016 4.016 0 1 0 0 8.032 4.016 4.016 0 0 0 0-8.032m-44.068.1a4.016 4.016 0 1 0 0 8.03 4.016 4.016 0 0 0 0-8.03m22.196 3.499c6.53 0 10.766 4.235 10.766 10.766s-4.236 10.766-10.766 10.766-10.767-4.236-10.767-10.766 4.236-10.766 10.767-10.766m-24.093 8.827a4.016 4.016 0 1 0 0 8.032 4.016 4.016 0 0 0 0-8.032m47.974.015a4.016 4.016 0 1 0 0 8.032 4.016 4.016 0 0 0 0-8.032m-5.283 11.43a4.016 4.016 0 1 0-.001 8.032 4.016 4.016 0 0 0 0-8.032m-37.482.095a4.016 4.016 0 1 0-.001 8.032 4.016 4.016 0 0 0 0-8.032" style="fill:currentColor;fill-opacity:.8;stroke:none;stroke-width:.264583" transform="translate(-10.319 -41.01)"/></svg>