<?xml version="1.0" encoding="UTF-8" standalone="no"?>
<svg
   width="1100"
   height="1100"
   aria-label="Sun-headed winged human logo"
   viewBox="0 0 1100 1100"
   version="1.1"
   id="svg1"
   sodipodi:docname="logoBeamsSmall.svg"
   inkscape:version="1.4 (e7c3feb1, 2024-10-09)"
   xmlns:inkscape="http://www.inkscape.org/namespaces/inkscape"
   xmlns:sodipodi="http://sodipodi.sourceforge.net/DTD/sodipodi-0.dtd"
   xmlns="http://www.w3.org/2000/svg"
   xmlns:svg="http://www.w3.org/2000/svg">
  <defs
     id="defs1" />
  <sodipodi:namedview
     id="namedview1"
     pagecolor="#ffffff"
     bordercolor="#000000"
     borderopacity="0.25"
     inkscape:showpageshadow="2"
     inkscape:pageopacity="0.0"
     inkscape:pagecheckerboard="0"
     inkscape:deskcolor="#d1d1d1"
     inkscape:zoom="0.2982705"
     inkscape:cx="305.09219"
     inkscape:cy="1346.0936"
     inkscape:window-width="1456"
     inkscape:window-height="1088"
     inkscape:window-x="1766"
     inkscape:window-y="178"
     inkscape:window-maximized="0"
     inkscape:current-layer="svg1" />
  <path
     d="m 609.01,187.906 c -0.704,-0.097 -1.487,0.129 -2.262,0.783 l -26.851,53.703 c 4.3144,1.41982 8.51898,3.15379 12.58,5.188 l 18.271,-52.89 c 1.766,-3.292 0.374,-6.493 -1.738,-6.784 m -115.658,0.601 c -2.112,0.292 -3.504,3.493 -1.738,6.784 l 18.271,52.89 c 4.06105,-2.03387 8.26563,-3.76751 12.58,-5.187 l -26.851,-53.703 c -0.775,-0.654 -1.558,-0.88 -2.262,-0.784 m 158.516,23.838 c -0.416,-0.062 -0.826,0.044 -1.12,0.344 l -43.324,44.287 c 3.63213,2.77491 7.05473,5.81381 10.24,9.092 12.12,-16.244 23.78,-32.62 35.084,-49.379 1.662,-2.464 0.366,-4.157 -0.88,-4.344 m -201.374,0.602 c -1.246,0.186 -2.542,1.88 -0.88,4.344 11.304,16.759 22.965,33.134 35.084,49.379 3.18527,-3.27819 6.60787,-6.31709 10.24,-9.092 l -43.324,-44.287 c -0.294,-0.3 -0.704,-0.406 -1.12,-0.344 m 239.254,32.742 -61.537,33.211 c 2.84107,4.16026 5.34089,8.54356 7.475,13.107 l 54.062,-39.318 c 4.237,-3.792 3.7,-5.94 0,-7 m -277.134,0.602 c -3.7,1.06 -4.237,3.208 0,7 l 54.062,39.318 c 2.13411,-4.56344 4.63393,-8.94674 7.475,-13.107 z m 138.882,3.191 c -45.412,0 -82.226,36.814 -82.226,82.227 0,40.588 29.426,74.253 68.098,80.959 -0.192,3.577 0.37,23.943 1.251,51.183 l -0.006,3.44 c -1.812,14.92 -4.95,17.228 -18,19 -48.197,1.232 -96.2,-0.623 -144,-7 -45.682,-7.957 -89.64,-22.838 -134,-36 l -18,-3 -50,1 c -7.137,0.424 -7.366,5.352 1,7 l 35,5 c 17.677,0.813 11.013,10.414 2,11 -34.346,2.37 -104.821,15.653 -162,81 33.69,1.627 65.47,-18.178 95,-32 24.245,-15.65 44.198,-24.753 71,-33 11.508,-3.629 20.164,-3.412 27,11 0.887,6.666 -12.007,17.168 -12.007,17.168 l 43.008,-18.168 c 4.451,-1.027 8.324,-0.51 12,0 66.283,18.278 132.54,25.86 201,27 24.283,4.026 28.74,11.09 32,35 0,0 4.937,29.235 6,44 2.92,40.563 1,122 1,122 0.095,14.983 -2.199,29.517 -10,42 l -20,32 c -7.485,12.627 -12.184,26.239 -17,40 -7.832,29.38 -6.203,59.976 -6.016,90.129 0.01,1.625 -5.77,8.67 -8.984,9.87 -6.064,2.264 -19,4 -19,4 -2.849,0.6 -4.94,5.346 -2,8 h 52 c 2.216,-0.652 2.55,-1.842 3,-3 -1.913,-36.71 0.476,-66.685 9,-102 5.373,-13.597 20.216,-43.08 44,-52 l 0.008,-0.218 c 23.264,9.31 37.82,38.19 43.127,51.617 8.524,35.314 10.912,65.289 9,102 0.449,1.158 0.783,2.348 3,3 h 52 c 2.939,-2.654 0.848,-7.4 -2,-8 0,0 -12.937,-1.736 -19,-4 -3.216,-1.2 -8.995,-8.246 -8.985,-9.871 0.187,-30.153 1.816,-60.749 -6.015,-90.129 -4.817,-13.76 -9.516,-27.372 -17,-40 l -20,-32 c -7.802,-12.483 -10.095,-27.016 -10,-42 0,0 -1.92,-81.437 1,-122 1.062,-14.764 6,-44 6,-44 3.26,-23.91 7.717,-30.974 32,-35 68.459,-1.139 134.716,-8.722 201,-27 3.675,-0.51 7.548,-1.026 12,0 l 43.007,18.168 c 0,0 -12.894,-10.502 -12.007,-17.168 6.836,-14.412 15.492,-14.628 27,-11 26.802,8.247 46.755,17.35 71,33 29.53,13.823 61.31,33.628 95,32 -57.178,-65.346 -127.654,-78.629 -162,-81 -9.013,-0.585 -15.677,-10.186 2,-11 l 35,-5 c 8.367,-1.647 8.137,-6.576 1,-7 l -50,-1 -18,3 c -44.36,13.162 -88.318,28.044 -134,36 -47.8,6.377 -95.803,8.233 -144,7 -13.05,-1.772 -16.188,-4.08 -18,-19 l -0.004,-2.305 c 0.892,-27.562 1.468,-48.358 1.255,-51.572 38.985,-6.444 68.723,-40.293 68.723,-81.103 0,-45.413 -36.814,-82.227 -82.226,-82.227 z m 0.293,22.895 c 35.058,0 59.477,24.419 59.477,59.476 0,35.057 -24.42,59.477 -59.477,59.477 -35.057,0 -59.476,-24.42 -59.476,-59.477 0,-35.057 24.42,-59.476 59.476,-59.476 m 154.618,26.084 c -0.986,-0.028 -2.191,0.039 -3.659,0.228 l -61.879,7.984 c 1.18529,4.41613 2.04329,8.91366 2.567,13.456 l 0.312,1.56 65,-18 c 0.645,-0.178 4.556,-5.033 -2.341,-5.228 m -310.452,0.601 c -6.897,0.196 -2.986,5.05 -2.341,5.229 l 65,18 0.312,-1.56 c 0.52339,-4.54231 1.38105,-9.03984 2.566,-13.456 l -61.878,-7.984 c -1.468,-0.19 -2.673,-0.257 -3.659,-0.229 m 247.764,38.736 c -0.31101,4.22294 -0.91007,8.4197 -1.793,12.561 14.12,5.226 86.272,4.959 69.822,1.33 -20.357,-4.49 -47.968,-13.247 -68.029,-13.89 m -185.076,0.602 c -20.062,0.643 -47.672,9.4 -68.03,13.89 -16.45,3.63 55.703,3.897 69.823,-1.33 -0.88288,-4.14097 -1.48194,-8.3374 -1.793,-12.56 m 178.383,27.973 c -1.71948,4.19346 -3.7432,8.25562 -6.055,12.154 5.701,4.671 38.298,23.99 57.777,25.162 14.153,1.318 -41.057,-32.742 -51.722,-37.316 m -171.69,0.601 c -10.665,4.574 -65.875,38.634 -51.722,37.317 19.479,-1.173 52.076,-20.491 57.777,-25.162 -2.31184,-3.8987 -4.33557,-7.96119 -6.055,-12.155 m 155.51,25.672 c -2.82963,3.22698 -5.87926,6.25422 -9.127,9.06 l 45.03,39.983 c 20.36,16.72 -14.102,-31.865 -35.903,-49.043 m -139.33,0.602 c -21.8,17.177 -56.262,65.763 -35.902,49.043 l 45.029,-39.983 c -3.24774,-2.80578 -6.29737,-5.83302 -9.127,-9.06 m 410.512,103.105 c -3.712,0.374 -4.413,2.86 -2.28,7.336 7.26,8.71 82.18,94.847 139,116 0.62,0.231 1.266,-0.435 1,-1 -14.64,-31.112 -34.79,-56.389 -61,-79 -23.654,-18.196 -43.485,-32.789 -72,-43 -1.91067,-0.34867 -3.484,-0.46067 -4.72,-0.336 m -681.694,0.602 c -1.236,-0.12533 -2.80933,-0.0133 -4.72,0.336 -28.515,10.21 -48.346,24.804 -72,43 -26.21,22.61 -46.36,47.887 -61,79 -0.266,0.565 0.379,1.23 1,1 56.82,-21.154 131.74,-107.29 139,-116 2.133,-4.476 1.432,-6.963 -2.28,-7.336 m 608.016,15.052 c -0.947,0.187 -1.56,0.98 -1.602,2.682 -0.344,14.26 40.127,130.184 99,180 -2.842,-29.79 -10.327,-57.827 -23,-85 -17.707,-35.195 -37.185,-69.614 -68,-95 -1.853,-1.3 -3.826,-2.435 -5.35,-2.678 -0.34639,-0.0628 -0.70114,-0.0642 -1.048,-0.004 m -535.387,0.606 c -1.523,0.243 -3.496,1.378 -5.35,2.678 -30.814,25.385 -50.292,59.805 -68,95 -12.672,27.173 -20.157,55.209 -23,85 58.874,-49.816 99.345,-165.74 99,-180 -0.054,-2.271 -1.127,-2.92 -2.65,-2.678 m 583.955,5.008 c -2.82,0.662 -2.842,3.226 -2.17,5.068 30.292,82.952 109.275,162.92 130,172 l 1,-2 c -11.198,-38.519 -26.92,-74.72 -51,-107 -32.322,-39.558 -51.55,-56.775 -74,-68 -1.639,-0.3 -2.89,-0.289 -3.83,-0.068 m -631.474,0.601 c -0.94,-0.22 -2.191,-0.23 -3.83,0.069 -22.45,11.224 -41.678,28.441 -74,68 -24.08,32.28 -39.802,68.48 -51,107 l 1,2 c 20.725,-9.08 99.708,-89.049 130,-172 0.672,-1.842 0.65,-4.406 -2.17,-5.069 m 545.304,1.467 c -1.621,-0.058 -3.1,0.672 -3,2 3.956,52.54 24.091,98.982 29,110 9.729,18.572 19.71,37.15 37,50 0,-18.686 -1.26,-36.722 -6,-55 -7.11,-22.348 -13.123,-45.1 -24,-66 -8.862,-14.18 -17.35,-33.244 -33,-41 m -459.134,0.602 c -15.65,7.755 -24.138,26.82 -33,41 -10.877,20.9 -16.89,43.652 -24,66 -4.74,18.278 -6,36.314 -6,55 17.29,-12.85 27.271,-31.428 37,-50 4.909,-11.019 25.044,-57.46 29,-110 0.1,-1.329 -1.379,-2.059 -3,-2 m 419.545,3.9 c -1.308,0.276 -2.253,1.385 -2.41,3.498 -2.137,28.585 0.142,54.09 9,82 7.86,17.293 15.358,34.057 31,46 0.855,-28.242 1.336,-53.576 -8,-81 -6.86,-17.41 -11.934,-35.081 -25,-49 -1.61,-1.218 -3.282,-1.774 -4.59,-1.498 m -379.956,0.602 c -1.308,-0.277 -2.98,0.28 -4.59,1.498 -13.066,13.918 -18.14,31.589 -25,49 -9.336,27.424 -8.855,52.758 -8,81 15.641,-11.944 23.14,-28.707 31,-46 8.858,-27.91 11.137,-53.415 9,-82 -0.157,-2.113 -1.102,-3.222 -2.41,-3.498 m 341.809,0.632 c -0.878,-0.019 -1.677,0.383 -2.264,1.264 -10.371,15.573 -7.552,34.43 -4.632,52 2.912,17.527 11.42,30.782 24.632,43 2.406,-12.028 4.198,-23.61 3,-36 -2.454,-20.993 -3.529,-42.371 -18,-59 -0.901,-0.804 -1.858,-1.244 -2.736,-1.264 m -303.662,0.602 c -0.878,0.02 -1.835,0.46 -2.736,1.264 -14.471,16.629 -15.546,38.007 -18,59 -1.198,12.39 0.594,23.972 3,36 13.212,-12.218 21.72,-25.473 24.632,-43 2.92,-17.571 5.74,-36.427 -4.632,-52 -0.587,-0.882 -1.386,-1.283 -2.264,-1.264"
     id="path1"
     sodipodi:nodetypes="ccccccccccccccccscccccccccccccccccsscccccccccccccccccccccccccsscccccccccccccccccccccccccccccccccccccccssscssscccccccccccccccccccccccccccccccccccccccccsccccccccccccccccccccccccccccccccccccccccccccccccccsccccccccccccccccccccccccccccc" />
  <path
     d="m 549.19781,174.07362 c -2.07919,-0.47202 -4.51115,2.03191 -4.02,5.73437 l -1.56691,55.93502 c 4.5175,-0.47008 9.06336,-0.60858 13.60109,-0.41441 l -6.17432,-59.72324 c -0.49438,-0.8854 -1.14727,-1.37315 -1.83986,-1.53174"
     id="path1-6" />
</svg>
