<svg xmlns="http://www.w3.org/2000/svg" width="180mm" height="180mm" viewBox="0 0 180 180"><path d="M100.296 66.918a4.016 4.016 0 1 0 0 8.032 4.016 4.016 0 0 0 0-8.032m13.39 3.386a4.016 4.016 0 1 0 .001 8.032 4.016 4.016 0 0 0 0-8.032m-26.948.04a4.016 4.016 0 1 0 0 8.032 4.016 4.016 0 0 0 0-8.032m13.684 8.008c-8.699 0-15.75 7.052-15.75 15.751.02 7.83 5.77 14.388 13.393 15.535.034.012.003.184.006.34-.01 2.54-.004 5.1-.505 7.067-.573 2.327-1.5 2.138-2.398 2.146-8.809.21-17.405-.345-25.62-2.272l-20.825-5.301c-4.255-.429-8.522-.747-12.368-.11-1.431.338-.97 1.922-.379 1.75 3.088.552 7.903 1.132 8.85 2.266.633 1.417-11.14 1.63-21.052 7.635-2.64 1.599-5.037 3.264-6.826 6.21.469.818 2.072.716 3.988.382 1.985-.346 4.307-.508 7.215-1.347 5.155-1.653 9.94-3.994 14.262-7.194.95-.724 1.742-1.643 2.618-2.422l-.683-.085-2.853 1.03-1.754 2.642 1.076-2.596-3.508 1.427-2.128 3.507 1.216-3.367-3.93 1.66-2.244 3.812 1.286-3.601-4.28 1.87s-2.806 3.251-2.806 3.158c0-.094 2.035-3.485 2.035-3.485l-2.69-1.17 3.508.469 3.532-1.497-2.292-1.17 3.414.89 4.326-1.567-2.198-1.567 3.18 1.17 3.906-1.334-2.058-1.52 3.18 1.286 3.321-.982.649.112a4.7 4.7 0 0 1 1.604-.583c2.408.055 4.766 1.709 5.68 2.02.36.434-1.343 1.17-2.942 1.889-5.535 3.146-11.22 6.009-16.116 10.353-4.67 3.388-6.791 5.816-8.273 7.577-1.602 1.904-2.305 3.33-2.75 4.533-.49 1.96.038 1.87 1.464 1.661 4.167-.617 9.797-3.58 17.257-9.48 4.05-4.307 8.255-8.615 11.553-12.923l-2.677 1.295-.935 2.363.023-1.685-2.268 1.614-.795 3.321-.187-2.736-2.783 2.058-.935 4.56-.024-3.976-2.596 2.128-1.356 4.889.538-4.538-3.017 2.526-.842 4.888.07-4.42-2.946 2.525-1.357 4.28.21-3.25-4.21 2.76 4.912-4.374-3.438-.842 4.186.047 2.55-2.105-2.713-.888 3.531.233 3.087-2.245-3.204-.889 4.14.164 2.993-2.198-2.409-1.076 3.578.421 2.105-1.614-2.526-.958 3.415.467 2.853-1.964-1.918-.959 3.11.328 3.294-1.66c1.074-.878 1.82-1.1 2.386-.964 1.987.457 3.38.454 5.916 1.735.458.24.155.555-.213.877-15.096 9.932-23.34 22.776-24.15 29.048-.22 1.385-1.398 3.973 2.693 1.616 3.394-2.66 7.013-5.121 9.696-8.413 5.432-6.099 9.76-12.554 12.6-19.491l-1.831 1.135-2.799 3.031-.207 4.635-.5-3.869-2.369 2.566.512 4.72-1.259-3.887-2.143 2.642.577 4.858-1.387-4.18-2.23 3.109.903 4.307-1.577-3.475-1.677 2.236.055 4.385-.801-3.503-4.172 4.137 2.814-3.454-3-.055 3.866-1.012 1.837-2.495-4.23.356 4.896-1.365 2.423-3.038-4.53.711 5.29-1.77 2.415-2.877-3.704.232 4.614-1.058 2.612-2.91h-3.24l3.935-.828 2.497-2.447-2.166-.265 2.893-.314 1.985-1.323.166-.002c.751-1.572 1.737-1.526 2.708-1.781 1.668-.324 3.208.239 4.639.607.52.134 1.92.23.44 2.036-3.578 4.408-7.08 8.858-9.749 13.763-2.266 4.386-3.464 8.826-4.05 13.296l.012 2.48 2.303-1.29c3.856-3.146 6.646-7.11 9.434-11.078 2.931-5.172 4.366-10.502 5.042-15.912l.003-.014h-.001l-3.588 5.088.826 4.068-1.389-3.406-1.95 3.373 1.322 4.597-1.72-3.836-1.951 3.34 1.29 4.63-1.786-3.77-2.216 4.2 1.091 3.804-1.455-3.142-2.183 3.936 1.489-4.068-2.613 1.058 3.109-2.018 2.017-3.605-3.638 1.29 3.969-2.15 2.017-3.406-3.67.926 3.902-1.62 2.083-3.242-3.571.86 3.902-1.488 2.05-2.977-3.075.463 3.671-1.223 2.547-3.572c.047-.059.059-.063.155-.106 4.348-.912 9.269.015 14.01.631 4.552.66 4.25 5.614 4.543 8.33l.505 20.068c.03 11.025-4.6 9.627-7.825 19.31-2.646 8.644-1.475 12.254-1.767 17.795-1.026 1.875-3.673 1.139-6.29 2.053-1.934.912-2.386 1.678.16 2.145 1.158.032 4.417.337 12.043-.279-.38-4.897-2.224-25.406 9.1-26.852v-.006c11.294 1.474 9.454 21.955 9.074 26.847 7.627.616 10.885.312 12.043.28 2.546-.468 2.094-1.233.16-2.146-2.617-.914-5.264-.177-6.29-2.052-.293-5.541.88-9.152-1.767-17.796-3.225-9.683-7.854-8.285-7.825-19.31l.505-20.067c.293-2.717-.009-7.67 4.544-8.33 4.74-.616 9.66-1.543 14.009-.63.293.137.418.526.498.978l2.025 2.336 3.508 1.52-2.97-.467 1.613 2.385 4 1.988-3.275-.701 1.871 3.086 4.046 1.73-3.484-.724 1.52 3.017 4.326 1.988-3.625-.749 1.824 3.344 3.344 2.105-3.11-.982 1.66 2.76-1.987-2.245-1.24 2.128.608-3.695-1.87-3.742-1.544 3.671.982-4.326-1.66-3.508-1.778 3.485 1.123-4.257-1.45-2.876-1.52 2.666.865-3.414-3.603-5.124c.695 5.283 2.118 10.49 4.982 15.544 2.788 3.967 5.578 7.931 9.433 11.077l2.305 1.291.011-2.48c-.586-4.47-1.784-8.91-4.05-13.296-2.669-4.905-6.17-9.355-9.75-13.764-1.479-1.806-.079-1.901.441-2.035 1.43-.369 2.971-.931 4.64-.608.998.263 2.017.175 2.776 1.893.041.107.09.212.133.319l1.148.611 3.18.561-2.268.234 2.83 2.339 3.671.982-3.157-.21 2.69 2.83 4.443 1.426-3.789-.468 3.017 3.18 4.63 1.661-3.882-.561 2.199 2.783 4.443 1.52-3.625-.515 2.316 2.877 3.624 1.099-3.297-.538 3.297 4.21-4.536-4.678-.889 3.134-.094-4.443-1.824-2.409-1.356 3.11.702-3.578-2.246-3.204-1.426 3.18.678-3.811-2.362-2.783-.959 3.227.117-4.139-2.081-2.362-.538 2.9-.07-3.672-1.614-1.497-.28 2.012-.234-2.362-1.98-1.505c2.84 6.745 7.088 13.036 12.388 18.986 2.683 3.292 6.301 5.752 9.695 8.413 4.092 2.357 2.913-.231 2.694-1.615-.81-6.273-9.054-19.117-24.15-29.048-.369-.322-.672-.639-.213-.878 2.536-1.28 3.929-1.278 5.916-1.735.69-.165 1.634.18 3.13 1.631l2.034 1.017c.94-.324 2.596-.076 3.953-.066-.882.226-2.115.038-2.646.678l2.596 1.736c.943-.44 2.48.055 3.72.083-.892.187-2.56.065-2.678.562l2.282 1.604c1.239-.426 2.976.055 4.465.083-1.18.215-3.324.289-3.54.645l2.862 1.951c1.366-.385 2.822.176 4.233.265-1.097.193-2.934-.068-3.29.578l2.976 2.2c1.686-.312 2.965.099 4.448.149-1.097.231-2.726.254-3.29.694l2.794 2.166c.966-.373 2.582.132 3.886.215-.898.226-2.61.141-2.695.678-.135.412 2.436 2.354 3.786 3.605-1.135-.744-2.706-1.968-3.695-2.348-.44.988.476 2.32.57 3.423-.447-1.438-1.636-2.472-1.34-4.316l-3.19-2.447c-.32 1.114.054 2.657.082 3.985-.32-1.565-1.135-2.586-.96-4.696 0 0-3.224-2.348-3.207-2.266-.46-.155.372 4.461.38 4.465-.414-1.714-1.6-3.296-1.24-5.143l-2.811-2.249c-.427 1.084.044 2.646.066 3.969-.337-1.472-1.41-2.861-1.01-4.415l-2.116-1.53c-.302.717-.132 1.747-.198 2.621-.16-1.014-.634-1.989-.48-3.043l-2.282-1.72-.083 1.44c-.572-2.193-1.468-2.682-3.294-3.262 3.242 4.151 7.276 8.304 11.18 12.456 7.46 5.9 13.09 8.863 17.256 9.48 1.427.209 1.955.298 1.464-1.661-.445-1.203-1.146-2.63-2.749-4.534-1.482-1.76-3.604-4.19-8.273-7.577-4.896-4.344-10.58-7.207-16.116-10.352-1.598-.72-3.303-1.456-2.941-1.89.914-.31 3.27-1.965 5.679-2.02.586.097 1.1.299 1.57.567 1.29.29 2.25.443 3.304.663.798-.698 2.083-.787 3.227-1.052-.793.443-1.744.71-2.315 1.403l3.368 1.24c.942-.698 2.232-.778 3.438-1.006-.793.426-1.795.69-2.339 1.31l4.981 1.8c1.204-.59 2.588-.577 3.882-.865-.974.398-2.34.578-2.923 1.193l3.18 1.38c.929-.344 2.718-.242 4.233-.281-.91.37-2.637.424-2.685 1.064-.042.567 1.391 2.35 2.054 3.496-1.068-1.162-2.254-1.66-3.204-3.485l-4.019-1.569c-.054 1.298.885 2.279 1.423 3.534-.764-1.263-2.086-2.473-2.292-3.788l-4.232-1.544 1.333 3.157-2.175-3.344-3.017-1.193c-.258.822.343 1.512.515 2.268-.473-.82-1.486-1.81-1.404-2.455l-3.09-.997c.875.778 1.666 1.695 2.614 2.417 4.322 3.2 9.107 5.54 14.262 7.194 2.909.84 5.23 1 7.215 1.347 1.916.335 3.519.437 3.987-.382-1.789-2.945-4.185-4.611-6.825-6.21-9.912-6.004-21.686-6.218-21.052-7.635.947-1.134 5.762-1.714 8.85-2.265.59.171 1.052-1.413-.379-1.751-3.846-.636-8.113-.318-12.368.11l-20.825 5.301c-8.215 1.928-16.811 2.482-25.62 2.272-.899-.007-1.825.181-2.398-2.146-.457-1.791-.54-4.963-.512-7.366 7.644-1.174 13.35-7.76 13.352-15.565 0-8.7-7.052-15.751-15.752-15.751m21.91 1.517a4.016 4.016 0 1 0 0 8.032 4.016 4.016 0 0 0 0-8.032m-44.068.099a4.016 4.016 0 1 0 0 8.032 4.016 4.016 0 0 0 0-8.032m22.196 3.5c6.53 0 10.766 4.235 10.766 10.765S106.99 105 100.46 105s-10.767-4.236-10.767-10.767 4.236-10.766 10.767-10.766m-24.094 8.827a4.016 4.016 0 1 0 0 8.032 4.016 4.016 0 0 0 0-8.032m47.975.015a4.016 4.016 0 1 0 0 8.032 4.016 4.016 0 0 0 0-8.032m-5.284 11.43a4.016 4.016 0 1 0 0 8.031 4.016 4.016 0 0 0 0-8.032m-37.482.095a4.016 4.016 0 1 0 0 8.032 4.016 4.016 0 0 0 0-8.032" style="fill:currentColor;fill-opacity:.8;stroke:none;stroke-width:.264583" transform="translate(-10.319 -41.01)"/></svg>